<?xml version="1.0" encoding="UTF-8" standalone="no"?>
<svg
   xmlns:dc="http://purl.org/dc/elements/1.1/"
   xmlns:cc="http://creativecommons.org/ns#"
   xmlns:rdf="http://www.w3.org/1999/02/22-rdf-syntax-ns#"
   xmlns:svg="http://www.w3.org/2000/svg"
   xmlns="http://www.w3.org/2000/svg"
   xmlns:sodipodi="http://sodipodi.sourceforge.net/DTD/sodipodi-0.dtd"
   xmlns:inkscape="http://www.inkscape.org/namespaces/inkscape"
   width="61pt"
   height="48pt"
   viewBox="0 0 61 48"
   version="1.1"
   id="svg4154"
   inkscape:version="0.48.2 r9819"
   sodipodi:docname="curation_tool.svg">
  <metadata
     id="metadata4172">
    <rdf:RDF>
      <cc:Work
         rdf:about="">
        <dc:format>image/svg+xml</dc:format>
        <dc:type
           rdf:resource="http://purl.org/dc/dcmitype/StillImage" />
        <dc:title></dc:title>
      </cc:Work>
    </rdf:RDF>
  </metadata>
  <defs
     id="defs4170" />
  <sodipodi:namedview
     pagecolor="#ffffff"
     bordercolor="#666666"
     borderopacity="1"
     objecttolerance="10"
     gridtolerance="10"
     guidetolerance="10"
     inkscape:pageopacity="0"
     inkscape:pageshadow="2"
     inkscape:window-width="1266"
     inkscape:window-height="1003"
     id="namedview4168"
     showgrid="false"
     inkscape:zoom="0.57673397"
     inkscape:cx="38.125"
     inkscape:cy="29.009453"
     inkscape:window-x="218"
     inkscape:window-y="0"
     inkscape:window-maximized="0"
     inkscape:current-layer="svg4154" />
  <path
     d="M 0,0 61,0 61,48 0,48 0,0 z"
     id="path4156"
     inkscape:connector-curvature="0"
     style="fill:#ffffff" />
  <path
     d="M 1.6048633,2.3846286 C 2.8944036,0.41018422 12.799409,0.34537642 14.891424,1.4365987 16.150008,4.1147781 13.198524,3.5239192 8.0342714,3.8556817 6.5968768,4.3448388 6.84,9 6.8,10.96 6.83,20.32 6.79,29.69 6.82,39.05 6.89,40.64 6.6879128,44.149193 8.3179125,45.029193 13.232166,45.620074 16.005571,44.718697 14.878637,47.876935 10.906032,48.132605 2.154908,48.974167 1.1618589,46.771203 -0.29860089,44.255954 0.32679151,24.791827 0.26679151,20.631827 c 0.17,-6.67 -0.78581386,-14.9816862 1.33807179,-18.2471984 z"
     id="path4158"
     inkscape:connector-curvature="0"
     style="fill:#231f20"
     sodipodi:nodetypes="cccccccccc" />
  <path
     d=" M 17.70 11.66 C 20.32 6.09 27.12 3.73 32.91 4.96 C 32.41 6.37 32.08 8.27 30.20 8.27 C 27.44 8.69 24.88 10.46 24.32 13.34 C 22.61 19.94 20.63 26.47 19.24 33.15 C 18.66 35.88 21.31 37.66 23.04 39.27 C 23.00 39.94 22.92 41.26 22.88 41.92 C 18.26 41.41 14.62 36.94 13.25 32.73 C 12.21 25.49 14.48 18.10 17.70 11.66 Z"
     id="path4162"
     fill="#d91919" />
  <path
     fill="#d91919"
     d=" M 37.45 9.59 C 36.93 8.63 37.63 6.51 38.95 6.67 C 43.29 8.03 46.70 11.79 47.92 16.12 C 48.53 24.30 47.09 33.28 41.72 39.75 C 38.32 42.84 33.58 44.55 28.97 43.99 C 29.06 43.30 29.24 41.93 29.34 41.24 C 31.59 40.40 34.58 40.26 35.85 37.88 C 37.37 34.71 37.77 31.14 38.75 27.79 C 39.74 23.54 41.35 19.38 41.51 14.99 C 41.46 12.39 39.28 10.99 37.45 9.59 Z"
     id="path4164" />
  <path
     fill="#309453"
     d=" M 29.32 16.16 C 31.68 15.50 34.62 15.73 35.89 18.13 C 38.78 21.91 34.91 28.16 30.18 26.97 C 25.12 25.83 24.81 18.33 29.32 16.16 Z"
     id="path4166" />
  <path
     sodipodi:nodetypes="cccccccccc"
     style="fill:#231f20"
     inkscape:connector-curvature="0"
     id="path4185"
     d="M 59.448029,2.2979336 C 58.158488,0.32348913 48.253483,0.25868133 46.161468,1.3499037 c -1.258584,2.6781794 1.6929,2.0873205 6.857152,2.419083 1.437395,0.4891571 1.194272,5.1443183 1.234272,7.1043183 -0.03,9.36 0.01,18.73 -0.02,28.09 -0.07,1.59 0.132087,5.099193 -1.497913,5.979193 -4.914253,0.590881 -7.687658,-0.310496 -6.560724,2.847742 3.972605,0.25567 12.723729,1.097232 13.716778,-1.105732 1.46046,-2.515249 0.835067,-21.979376 0.895067,-26.139376 -0.17,-6.67 0.785814,-14.9816862 -1.338071,-18.2471984 z" />
</svg>
